<?xml version="1.0" encoding="UTF-8"?>
<svg xmlns="http://www.w3.org/2000/svg" width="120" height="120" viewBox="0 0 120 120" fill="none">
  <path d="M120 60C120 93.1371 93.1371 120 60 120C26.8629 120 0 93.1371 0 60C0 26.8629 26.8629 0 60 0C93.1371 0 120 26.8629 120 60Z" fill="#FBE5D2"></path>
  <g clip-path="url(#clip0_75_783)">
    <path d="M39.8337 15.0462C39.8337 15.0462 39.0388 15.0462 38.3956 16.5711C37.8313 17.9076 38.2439 18.667 38.6019 18.746C38.96 18.825 40.1189 18.4969 40.2221 16.4617C40.3131 14.6817 39.4272 13.6853 38.8143 13.8797C38.0437 14.1288 37.4794 15.915 36.818 18.0231C36.1566 20.1312 28.499 44.6023 28.232 65.726C28.1592 71.3456 27.6191 101.868 27.6191 101.868C27.6191 101.868 42.1334 105.045 45.7923 108.338L91.4772 97.8398C91.4772 97.8398 92.6119 68.0954 92.3631 61.1149C92.1143 54.1344 91.2163 47.6825 88.5282 39.329C87.0659 34.7969 81.5745 17.3062 81.1983 15.9636" stroke="#B6590D" stroke-width="1.5" stroke-miterlimit="10"></path>
    <path d="M38.8506 18.752L80.6156 16.1517C80.6156 16.1517 82.2175 16.4494 82.4663 14.1226C82.6908 11.9963 81.277 11.6135 81.277 11.6135L39.154 13.8857" stroke="#B6590D" stroke-width="1.5" stroke-miterlimit="10"></path>
    <path d="M38.6016 18.752C38.6016 18.752 42.5517 31.4371 44.099 38.6727C47.0116 52.2388 46.3745 65.2702 46.3017 70.3309C46.2288 75.3916 45.7859 108.338 45.7859 108.338" stroke="#B6590D" stroke-width="1.5" stroke-miterlimit="10"></path>
    <path d="M28.5 102L40 94V52.5C39.8333 44.8333 39.1 27.4 37.5 19" stroke="#B6590D" stroke-width="1.5"></path>
    <path d="M40 94L45.5 107.5" stroke="#B6590D" stroke-width="1.5"></path>
  </g>
  <defs>
    <clipPath id="clip0_75_783">
      <rect width="66" height="98" fill="white" transform="translate(27 11)"></rect>
    </clipPath>
  </defs>
</svg>
