<?xml version="1.0" encoding="UTF-8"?>
<svg xmlns="http://www.w3.org/2000/svg" width="40" height="41" viewBox="0 0 40 41" fill="none">
  <path d="M20 40.5C17.2667 40.5 14.6833 39.975 12.25 38.925C9.81667 37.875 7.69167 36.4417 5.875 34.625C4.05833 32.8083 2.625 30.6833 1.575 28.25C0.525 25.8167 0 23.2333 0 20.5C0 17.7333 0.525 15.1417 1.575 12.725C2.625 10.3083 4.05833 8.19167 5.875 6.375C7.69167 4.55833 9.81667 3.125 12.25 2.075C14.6833 1.025 17.2667 0.5 20 0.5C22.7667 0.5 25.3583 1.025 27.775 2.075C30.1917 3.125 32.3083 4.55833 34.125 6.375C35.9417 8.19167 37.375 10.3083 38.425 12.725C39.475 15.1417 40 17.7333 40 20.5C40 23.2333 39.475 25.8167 38.425 28.25C37.375 30.6833 35.9417 32.8083 34.125 34.625C32.3083 36.4417 30.1917 37.875 27.775 38.925C25.3583 39.975 22.7667 40.5 20 40.5ZM20 36.4C20.8667 35.2 21.6167 33.95 22.25 32.65C22.8833 31.35 23.4 29.9667 23.8 28.5H16.2C16.6 29.9667 17.1167 31.35 17.75 32.65C18.3833 33.95 19.1333 35.2 20 36.4ZM14.8 35.6C14.2 34.5 13.675 33.3583 13.225 32.175C12.775 30.9917 12.4 29.7667 12.1 28.5H6.2C7.16667 30.1667 8.375 31.6167 9.825 32.85C11.275 34.0833 12.9333 35 14.8 35.6ZM25.2 35.6C27.0667 35 28.725 34.0833 30.175 32.85C31.625 31.6167 32.8333 30.1667 33.8 28.5H27.9C27.6 29.7667 27.225 30.9917 26.775 32.175C26.325 33.3583 25.8 34.5 25.2 35.6ZM4.5 24.5H11.3C11.2 23.8333 11.125 23.175 11.075 22.525C11.025 21.875 11 21.2 11 20.5C11 19.8 11.025 19.125 11.075 18.475C11.125 17.825 11.2 17.1667 11.3 16.5H4.5C4.33333 17.1667 4.20833 17.825 4.125 18.475C4.04167 19.125 4 19.8 4 20.5C4 21.2 4.04167 21.875 4.125 22.525C4.20833 23.175 4.33333 23.8333 4.5 24.5ZM15.3 24.5H24.7C24.8 23.8333 24.875 23.175 24.925 22.525C24.975 21.875 25 21.2 25 20.5C25 19.8 24.975 19.125 24.925 18.475C24.875 17.825 24.8 17.1667 24.7 16.5H15.3C15.2 17.1667 15.125 17.825 15.075 18.475C15.025 19.125 15 19.8 15 20.5C15 21.2 15.025 21.875 15.075 22.525C15.125 23.175 15.2 23.8333 15.3 24.5ZM28.7 24.5H35.5C35.6667 23.8333 35.7917 23.175 35.875 22.525C35.9583 21.875 36 21.2 36 20.5C36 19.8 35.9583 19.125 35.875 18.475C35.7917 17.825 35.6667 17.1667 35.5 16.5H28.7C28.8 17.1667 28.875 17.825 28.925 18.475C28.975 19.125 29 19.8 29 20.5C29 21.2 28.975 21.875 28.925 22.525C28.875 23.175 28.8 23.8333 28.7 24.5ZM27.9 12.5H33.8C32.8333 10.8333 31.625 9.38333 30.175 8.15C28.725 6.91667 27.0667 6 25.2 5.4C25.8 6.5 26.325 7.64167 26.775 8.825C27.225 10.0083 27.6 11.2333 27.9 12.5ZM16.2 12.5H23.8C23.4 11.0333 22.8833 9.65 22.25 8.35C21.6167 7.05 20.8667 5.8 20 4.6C19.1333 5.8 18.3833 7.05 17.75 8.35C17.1167 9.65 16.6 11.0333 16.2 12.5ZM6.2 12.5H12.1C12.4 11.2333 12.775 10.0083 13.225 8.825C13.675 7.64167 14.2 6.5 14.8 5.4C12.9333 6 11.275 6.91667 9.825 8.15C8.375 9.38333 7.16667 10.8333 6.2 12.5Z" fill="#2853A1"></path>
</svg>
