<?xml version="1.0" encoding="UTF-8"?>
<svg xmlns="http://www.w3.org/2000/svg" width="40" height="41" viewBox="0 0 40 41" fill="none">
  <path d="M20 40.5C22.3333 40.5 24.5312 40.1354 26.5938 39.4062C28.6562 38.6771 30.5417 37.6458 32.25 36.3125L35.75 39.75C36.2083 40.2083 36.7917 40.4375 37.5 40.4375C38.2083 40.4375 38.7917 40.2083 39.25 39.75C39.7083 39.2917 39.9375 38.7083 39.9375 38C39.9375 37.2917 39.7083 36.7083 39.25 36.25L35.8125 32.8125C37.1458 31.1042 38.1771 29.2083 38.9062 27.125C39.6354 25.0417 40 22.8333 40 20.5C40 14.9167 38.0625 10.1875 34.1875 6.3125C30.3125 2.4375 25.5833 0.5 20 0.5H5C3.625 0.5 2.44792 0.989583 1.46875 1.96875C0.489582 2.94792 0 4.125 0 5.5V20.5C0 26.0833 1.9375 30.8125 5.8125 34.6875C9.6875 38.5625 14.4167 40.5 20 40.5ZM20 35.5C15.8333 35.5 12.2917 34.0417 9.375 31.125C6.45833 28.2083 5 24.6667 5 20.5V5.5H20C24.1667 5.5 27.7083 6.95833 30.625 9.875C33.5417 12.7917 35 16.3333 35 20.5C35 22.125 34.75 23.6771 34.25 25.1562C33.75 26.6354 33.0625 27.9792 32.1875 29.1875L19.25 16.25C18.7917 15.7917 18.2083 15.5625 17.5 15.5625C16.7917 15.5625 16.2083 15.7917 15.75 16.25C15.25 16.75 15 17.3438 15 18.0312C15 18.7188 15.25 19.3125 15.75 19.8125L28.6875 32.75C27.4792 33.625 26.1354 34.3021 24.6562 34.7812C23.1771 35.2604 21.625 35.5 20 35.5Z" fill="#2853A1"></path>
</svg>
