<?xml version="1.0" encoding="UTF-8"?>
<svg xmlns="http://www.w3.org/2000/svg" width="40" height="35" viewBox="0 0 40 35" fill="none">
  <path d="M25.9584 34.7821H2.19557C1.29546 34.7821 0.647384 34.386 0.251337 33.5939C-0.144709 32.8018 -0.0727009 32.0457 0.467363 31.3257L10.8366 17.5L0.467363 3.67442C-0.0727009 2.95434 -0.144709 2.19825 0.251337 1.40616C0.647384 0.614064 1.29546 0.218018 2.19557 0.218018H25.9584C26.6424 0.218018 27.2905 0.371036 27.9026 0.677071C28.5147 0.983107 29.0187 1.40616 29.4148 1.94622L39.1359 14.9077C39.712 15.6638 40 16.5279 40 17.5C40 18.4722 39.712 19.3363 39.1359 20.0923L29.4148 33.0539C29.0187 33.5939 28.5147 34.017 27.9026 34.323C27.2905 34.6291 26.6424 34.7821 25.9584 34.7821ZM6.51607 30.4616H25.9584L35.6795 17.5L25.9584 4.53852H6.51607L14.293 14.9077C14.8691 15.6638 15.1571 16.5279 15.1571 17.5C15.1571 18.4722 14.8691 19.3363 14.293 20.0923L6.51607 30.4616Z" fill="#2853A1"></path>
</svg>
