<?xml version="1.0" encoding="UTF-8"?>
<svg xmlns="http://www.w3.org/2000/svg" width="46" height="41" viewBox="0 0 46 41" fill="none">
  <path d="M22.7547 36.8563C22.891 36.8563 23.0273 36.8222 23.1636 36.754C23.2999 36.6859 23.4021 36.6177 23.4702 36.5496L40.2353 19.7845C40.6443 19.3756 40.9424 18.9156 41.1298 18.4044C41.3172 17.8933 41.4109 17.3822 41.4109 16.871C41.4109 16.3258 41.3172 15.8062 41.1298 15.3121C40.9424 14.818 40.6443 14.3835 40.2353 14.0087L31.5461 5.31946C31.1713 4.91056 30.7368 4.6124 30.2427 4.42498C29.7486 4.23757 29.229 4.14386 28.6838 4.14386C28.1726 4.14386 27.6615 4.23757 27.1504 4.42498C26.6393 4.6124 26.1792 4.91056 25.7703 5.31946L25.2081 5.88171L28.9905 9.71519C29.5016 10.1922 29.8764 10.7375 30.1149 11.3508C30.3535 11.9642 30.4727 12.6116 30.4727 13.2931C30.4727 14.7243 29.9872 15.9254 29.016 16.8966C28.0449 17.8677 26.8437 18.3533 25.4125 18.3533C24.731 18.3533 24.0751 18.234 23.4447 17.9955C22.8143 17.757 22.2606 17.3992 21.7835 16.9221L17.95 13.1398L9.00522 22.0846C8.903 22.1868 8.82633 22.2975 8.77522 22.4168C8.7241 22.5361 8.69855 22.6638 8.69855 22.8001C8.69855 23.0728 8.80077 23.3198 9.00522 23.5413C9.20968 23.7628 9.4482 23.8735 9.72081 23.8735C9.85711 23.8735 9.99341 23.8395 10.1297 23.7713C10.266 23.7031 10.3682 23.635 10.4364 23.5668L17.3878 16.6155L20.2501 19.4778L13.3498 26.4292C13.2476 26.5314 13.1709 26.6422 13.1198 26.7614C13.0687 26.8807 13.0432 27.0085 13.0432 27.1448C13.0432 27.4174 13.1454 27.6559 13.3498 27.8603C13.5543 28.0648 13.7928 28.167 14.0654 28.167C14.2017 28.167 14.338 28.133 14.4743 28.0648C14.6106 27.9967 14.7129 27.9285 14.781 27.8603L21.7324 20.9601L24.5947 23.8224L17.6945 30.7738C17.5922 30.8419 17.5156 30.9442 17.4644 31.0805C17.4133 31.2168 17.3878 31.3531 17.3878 31.4894C17.3878 31.762 17.49 32.0005 17.6945 32.205C17.8989 32.4094 18.1374 32.5116 18.41 32.5116C18.5463 32.5116 18.6741 32.4861 18.7934 32.435C18.9127 32.3839 19.0234 32.3072 19.1256 32.205L26.077 25.3047L28.9393 28.167L21.988 35.1184C21.8857 35.2206 21.8091 35.3314 21.7579 35.4506C21.7068 35.5699 21.6813 35.6977 21.6813 35.834C21.6813 36.1066 21.792 36.3451 22.0135 36.5496C22.235 36.754 22.4821 36.8563 22.7547 36.8563ZM22.7035 40.9453C21.4428 40.9453 20.3268 40.5279 19.3556 39.693C18.3845 38.8582 17.8137 37.8104 17.6433 36.5496C16.4848 36.3792 15.5136 35.9021 14.7299 35.1184C13.9462 34.3347 13.4691 33.3635 13.2987 32.205C12.1402 32.0346 11.1775 31.549 10.4108 30.7482C9.64414 29.9475 9.1756 28.9848 9.00522 27.8603C7.71036 27.69 6.65402 27.1277 5.83621 26.1736C5.0184 25.2195 4.6095 24.095 4.6095 22.8001C4.6095 22.1186 4.73728 21.4627 4.99284 20.8323C5.24841 20.2019 5.61472 19.6482 6.09178 19.1711L17.95 7.36399L24.6458 14.0598C24.714 14.162 24.8162 14.2387 24.9525 14.2898C25.0888 14.3409 25.2251 14.3665 25.3614 14.3665C25.6681 14.3665 25.9237 14.2728 26.1281 14.0854C26.3326 13.8979 26.4348 13.6509 26.4348 13.3442C26.4348 13.2079 26.4092 13.0716 26.3581 12.9353C26.307 12.799 26.2303 12.6968 26.1281 12.6286L18.8189 5.31946C18.4441 4.91056 18.0097 4.6124 17.5156 4.42498C17.0215 4.23757 16.5018 4.14386 15.9566 4.14386C15.4455 4.14386 14.9343 4.23757 14.4232 4.42498C13.9121 4.6124 13.4521 4.91056 13.0432 5.31946L5.83621 12.5775C5.52953 12.8842 5.27397 13.242 5.06951 13.6509C4.86506 14.0598 4.72876 14.4687 4.66061 14.8776C4.59246 15.2865 4.59246 15.7039 4.66061 16.1299C4.72876 16.5558 4.86506 16.9562 5.06951 17.331L2.10495 20.2956C1.52567 19.5119 1.09973 18.6515 0.827124 17.7144C0.554521 16.7773 0.452294 15.8317 0.520445 14.8776C0.588596 13.9235 0.827124 12.9949 1.23603 12.092C1.64493 11.189 2.20718 10.3797 2.92276 9.66408L10.1297 2.45713C10.9475 1.67339 11.859 1.07707 12.8643 0.668167C13.8695 0.259262 14.9003 0.0548096 15.9566 0.0548096C17.0129 0.0548096 18.0437 0.259262 19.049 0.668167C20.0542 1.07707 20.9487 1.67339 21.7324 2.45713L22.2946 3.01937L22.8569 2.45713C23.6747 1.67339 24.5862 1.07707 25.5914 0.668167C26.5967 0.259262 27.6274 0.0548096 28.6838 0.0548096C29.7401 0.0548096 30.7709 0.259262 31.7761 0.668167C32.7813 1.07707 33.6758 1.67339 34.4596 2.45713L43.0977 11.0952C43.8814 11.879 44.4777 12.782 44.8866 13.8042C45.2955 14.8265 45.5 15.8658 45.5 16.9221C45.5 17.9785 45.2955 19.0093 44.8866 20.0145C44.4777 21.0197 43.8814 21.9142 43.0977 22.6979L26.3326 39.4119C25.8555 39.889 25.3018 40.2638 24.6714 40.5364C24.041 40.809 23.3851 40.9453 22.7035 40.9453Z" fill="#2853A1"></path>
</svg>
