<?xml version="1.0" encoding="UTF-8"?>
<svg xmlns="http://www.w3.org/2000/svg" xmlns:xlink="http://www.w3.org/1999/xlink" version="1.1" id="Crop_Marks" x="0px" y="0px" viewBox="0 0 398.7 100.1" xml:space="preserve">
<g>
	<g>
		<path fill="#342D3F" d="M147.1,55V36.4L137.3,55h-6.9l-9.8-18.6V55h-7.2V28.5h9.7l10.7,20.1l10.7-20.1h9.7V55H147.1z"></path>
		<path fill="#342D3F" d="M182,50h-14.8l-2.5,5h-8l13.9-26.5h8L192.5,55h-8L182,50z M169.8,44.8h9.7l-4.8-9.8L169.8,44.8z"></path>
		<path fill="#342D3F" d="M227.6,41.7c0,1.7-0.2,3.2-0.6,4.5c-0.4,1.3-0.9,2.5-1.6,3.4c-0.7,1-1.5,1.8-2.4,2.5    c-0.9,0.7-2,1.2-3.2,1.6c-1.2,0.4-2.4,0.7-3.7,0.9c-1.3,0.2-2.7,0.3-4.2,0.3h-16.8V28.5h16.8c1.5,0,2.8,0.1,4.2,0.3    c1.3,0.2,2.6,0.5,3.8,0.9c1.2,0.4,2.2,1,3.2,1.6c1,0.7,1.8,1.5,2.4,2.5c0.7,1,1.2,2.1,1.6,3.4C227.4,38.5,227.6,40,227.6,41.7z     M220.3,41.7c0-1.3-0.2-2.4-0.5-3.3c-0.3-0.9-0.9-1.7-1.6-2.3c-0.7-0.6-1.7-1.1-2.8-1.4c-1.2-0.3-2.6-0.5-4.3-0.5h-8.9v15h8.9    c1.7,0,3.1-0.2,4.3-0.5c1.2-0.3,2.1-0.8,2.8-1.4c0.7-0.6,1.3-1.4,1.6-2.3C220.2,44.1,220.3,43,220.3,41.7z"></path>
		<path fill="#342D3F" d="M263.8,44.8c0,1.7-0.4,3.3-1.3,4.6c-0.8,1.4-2.1,2.5-3.6,3.4c-1.6,0.9-3.5,1.6-5.7,2.1    c-2.2,0.5-4.7,0.7-7.5,0.7c-1.2,0-2.5,0-3.8-0.1c-1.3-0.1-2.6-0.2-3.9-0.4c-1.3-0.2-2.5-0.4-3.6-0.6c-1.1-0.2-2-0.5-2.8-0.7v-6.3    c0.8,0.3,1.7,0.7,2.7,1c1,0.3,2.1,0.6,3.3,0.8c1.2,0.2,2.5,0.4,3.8,0.6c1.4,0.1,2.8,0.2,4.3,0.2c1.4,0,2.7-0.1,3.8-0.3    c1.1-0.2,2-0.4,2.8-0.7c0.8-0.3,1.5-0.6,2-1c0.5-0.4,1-0.7,1.3-1.1c0.3-0.4,0.5-0.8,0.7-1.2c0.1-0.4,0.2-0.7,0.2-1.1v-2.3    c-1.3,1-2.9,1.8-4.7,2.4c-1.8,0.6-3.9,0.9-6.2,0.9c-2.7,0-4.9-0.3-6.7-0.8c-1.8-0.5-3.2-1.3-4.3-2.3c-1.1-1-1.8-2.2-2.3-3.6    c-0.5-1.4-0.7-3-0.7-4.8v-5.9h7.2v5.2c0,1,0.1,2,0.4,2.8c0.3,0.8,0.7,1.5,1.3,2c0.6,0.5,1.4,1,2.3,1.2c1,0.3,2.1,0.4,3.5,0.4    c1.1,0,2.2-0.1,3.3-0.4c1-0.3,2-0.7,2.8-1.1c0.9-0.5,1.6-1,2.3-1.6c0.7-0.6,1.3-1.2,1.8-1.8v-6.7h7.2V44.8z"></path>
	</g>
	<g>
		<path fill="#342D3F" d="M298.2,36.6c0,1.3-0.2,2.5-0.6,3.5c-0.4,1-1.1,1.9-2,2.6c-0.9,0.7-2.1,1.2-3.6,1.6    c-1.5,0.4-3.2,0.5-5.3,0.5h-11.9V55h-2.4V28.5h14.3c2.1,0,3.8,0.2,5.3,0.5c1.5,0.4,2.7,0.9,3.6,1.6c0.9,0.7,1.6,1.5,2,2.5    C298,34.1,298.2,35.3,298.2,36.6z M295.7,36.6c0-1.3-0.2-2.3-0.6-3c-0.4-0.8-1.1-1.4-1.9-1.8c-0.9-0.4-2-0.7-3.3-0.8    c-1.3-0.1-2.9-0.2-4.7-0.2h-10.4v11.8h10.4c0.7,0,1.5,0,2.3,0c0.8,0,1.6,0,2.4-0.1c0.8-0.1,1.5-0.2,2.2-0.4c0.7-0.2,1.3-0.5,1.9-1    c0.5-0.4,1-1,1.3-1.7C295.5,38.6,295.7,37.7,295.7,36.6z"></path>
		<path fill="#342D3F" d="M326.9,55v-2.9c-0.9,0.5-2,1-3.2,1.4c-1.2,0.4-2.4,0.8-3.7,1.1c-1.3,0.3-2.6,0.5-4,0.7    c-1.4,0.2-2.7,0.3-4.1,0.3c-1.7,0-3.3-0.2-4.6-0.5c-1.4-0.3-2.5-0.8-3.5-1.4c-1-0.6-1.7-1.4-2.2-2.3c-0.5-0.9-0.8-2-0.8-3.2    c0-1.2,0.3-2.2,0.9-3.1c0.6-0.9,1.5-1.7,2.6-2.4c1.1-0.7,2.4-1.2,4-1.7c1.6-0.5,3.3-0.9,5.2-1.2c1.9-0.3,4-0.6,6.3-0.8    c2.2-0.2,4.6-0.4,7.1-0.5v-2c0-0.8-0.2-1.5-0.5-2.2c-0.3-0.6-0.7-1.2-1.3-1.6c-0.6-0.5-1.2-0.9-1.9-1.2c-0.7-0.3-1.6-0.6-2.4-0.8    c-0.9-0.2-1.8-0.3-2.7-0.4c-1-0.1-1.9-0.1-2.9-0.1c-1.3,0-2.5,0.1-3.6,0.2c-1.1,0.1-2.1,0.3-3,0.5c-0.9,0.2-1.8,0.5-2.7,0.8    c-0.8,0.3-1.7,0.6-2.6,0.9v-2.8c1.8-0.5,3.7-0.9,5.7-1.2c2-0.4,4.2-0.5,6.5-0.5c1.9,0,3.7,0.2,5.4,0.5c1.7,0.3,3.1,0.9,4.4,1.6    c1.2,0.7,2.2,1.6,2.9,2.8c0.7,1.1,1.1,2.5,1.1,4.2v18H326.9z M326.9,40.6c-4.2,0.2-7.8,0.6-10.8,1c-3,0.4-5.4,0.9-7.3,1.6    c-1.9,0.6-3.3,1.3-4.2,2.2c-0.9,0.8-1.3,1.8-1.3,2.8c0,0.8,0.2,1.6,0.6,2.3c0.4,0.7,1.1,1.2,1.9,1.6c0.8,0.4,1.8,0.8,3,1    c1.2,0.2,2.5,0.3,3.9,0.3c0.8,0,1.7,0,2.6-0.1c0.9-0.1,1.8-0.2,2.7-0.4c0.9-0.2,1.8-0.4,2.7-0.6c0.9-0.2,1.7-0.5,2.5-0.8    c0.8-0.3,1.5-0.6,2.1-0.9c0.6-0.3,1.2-0.6,1.6-1V40.6z"></path>
		<path fill="#342D3F" d="M360.7,54c-0.9,0.3-1.8,0.6-2.8,0.8c-1,0.2-2,0.4-3.1,0.5c-1.1,0.1-2.3,0.2-3.5,0.2    c-1.6,0-3.1-0.1-4.5-0.4c-1.4-0.3-2.8-0.6-4-1.2c-1.2-0.5-2.4-1.2-3.4-1.9c-1-0.8-1.9-1.7-2.6-2.7c-0.7-1-1.3-2.2-1.7-3.4    c-0.4-1.3-0.6-2.7-0.6-4.2c0-1.5,0.2-2.9,0.6-4.2c0.4-1.3,1-2.4,1.7-3.4c0.7-1,1.6-1.9,2.6-2.7c1-0.8,2.1-1.4,3.4-1.9    c1.2-0.5,2.6-0.9,4-1.2c1.4-0.3,3-0.4,4.5-0.4c1.3,0,2.5,0.1,3.5,0.2c1.1,0.1,2.1,0.3,3.1,0.5c1,0.2,1.9,0.5,2.8,0.8    c0.9,0.3,1.8,0.7,2.7,1.1v2.9c-0.7-0.5-1.5-0.9-2.4-1.3c-0.8-0.4-1.7-0.8-2.7-1.1c-1-0.3-2-0.6-3.1-0.7c-1.1-0.2-2.3-0.3-3.6-0.3    c-2.5,0-4.8,0.3-6.6,0.8c-1.9,0.6-3.4,1.3-4.6,2.3c-1.2,1-2.1,2.2-2.7,3.7c-0.6,1.4-0.9,3-0.9,4.8c0,1.8,0.3,3.4,0.9,4.8    c0.6,1.4,1.5,2.6,2.7,3.7c1.2,1,2.8,1.8,4.6,2.3c1.9,0.5,4.1,0.8,6.6,0.8c1.3,0,2.5-0.1,3.6-0.3c1.1-0.2,2.2-0.4,3.2-0.7    c1-0.3,1.9-0.7,2.7-1.1c0.8-0.4,1.6-0.8,2.3-1.3v2.9C362.5,53.3,361.6,53.6,360.7,54z"></path>
		<path fill="#342D3F" d="M393.7,55c-0.1-1.4-0.5-2.7-1.1-3.9c-0.6-1.2-1.3-2.2-2.2-3.1c-0.9-0.9-1.9-1.7-3.1-2.3    c-1.2-0.6-2.4-1.2-3.7-1.6c-1.3-0.4-2.7-0.7-4.1-0.9c-1.4-0.2-2.8-0.3-4.2-0.3h-4.1V55h-2.4V28.5h2.4v12.2h3.5    c1.4,0,2.7-0.1,4.1-0.4c1.4-0.3,2.7-0.6,3.9-1.1c1.2-0.5,2.4-1.1,3.5-1.8c1.1-0.7,2-1.5,2.8-2.4c0.8-0.9,1.5-1.9,2-3    c0.5-1.1,0.9-2.3,1-3.6h2.5c-0.1,1.4-0.4,2.7-0.9,3.8c-0.5,1.1-1.1,2.2-1.8,3.1c-0.7,0.9-1.5,1.7-2.4,2.4    c-0.9,0.7-1.8,1.3-2.7,1.8c-0.9,0.5-1.8,0.9-2.7,1.2c-0.9,0.3-1.7,0.6-2.4,0.7c0.9,0.1,1.8,0.4,2.9,0.6c1,0.3,2.1,0.7,3.1,1.2    c1,0.5,2,1.1,3,1.8c1,0.7,1.9,1.5,2.6,2.5c0.8,1,1.4,2,2,3.3c0.5,1.2,0.9,2.6,1,4.1H393.7z"></path>
	</g>
	<g>
		<path fill="#342D3F" d="M124.9,71.4c0,0.5-0.1,1-0.2,1.4c-0.1,0.4-0.3,0.7-0.6,1c-0.2,0.3-0.5,0.5-0.9,0.7    c-0.3,0.2-0.7,0.3-1.1,0.4c-0.4,0.1-0.9,0.2-1.3,0.2c-0.5,0-1,0.1-1.5,0.1h-7.8V61.6h7.6c0.4,0,0.8,0,1.2,0c0.4,0,0.8,0.1,1.1,0.2    c0.4,0.1,0.7,0.2,1,0.4c0.3,0.2,0.6,0.4,0.8,0.6c0.2,0.3,0.4,0.6,0.5,0.9s0.2,0.8,0.2,1.3c0,0.4-0.1,0.8-0.2,1.1    c-0.1,0.3-0.3,0.6-0.5,0.8c-0.2,0.2-0.5,0.4-0.8,0.6c-0.3,0.1-0.7,0.3-1.2,0.3c0.7,0,1.2,0.2,1.7,0.3c0.5,0.2,0.8,0.4,1.1,0.7    c0.3,0.3,0.5,0.6,0.6,1.1C124.9,70.4,124.9,70.9,124.9,71.4z M122.8,65.1c0-0.2,0-0.4,0-0.6c0-0.2-0.1-0.4-0.2-0.5    c-0.1-0.2-0.2-0.3-0.4-0.5c-0.2-0.2-0.4-0.3-0.7-0.4c-0.3-0.1-0.7-0.2-1.1-0.3c-0.4-0.1-1-0.1-1.6-0.1h-6v4.7h6    c0.9,0,1.6-0.1,2.1-0.2c0.5-0.1,0.9-0.3,1.2-0.5c0.3-0.2,0.5-0.5,0.6-0.8C122.7,65.7,122.8,65.4,122.8,65.1z M123.6,71.4    c0-0.5-0.1-0.9-0.3-1.3c-0.2-0.4-0.4-0.7-0.8-0.9c-0.4-0.2-0.8-0.4-1.4-0.5c-0.6-0.1-1.3-0.2-2.1-0.2h-6.3V74h6.5    c0.8,0,1.5,0,2.1-0.1c0.6-0.1,1-0.2,1.4-0.5c0.3-0.2,0.6-0.5,0.7-0.8C123.6,72.3,123.6,71.9,123.6,71.4z"></path>
		<path fill="#342D3F" d="M143.7,68.4c0,1.2-0.2,2.3-0.7,3.1c-0.4,0.9-1,1.6-1.8,2.2c-0.8,0.6-1.7,1-2.7,1.3c-1,0.3-2.2,0.4-3.4,0.4    c-1.2,0-2.3-0.1-3.4-0.4c-1-0.3-2-0.7-2.7-1.3c-0.8-0.6-1.4-1.3-1.8-2.2c-0.4-0.9-0.7-1.9-0.7-3.1c0-0.8,0.1-1.5,0.3-2.2    c0.2-0.7,0.5-1.2,0.9-1.8c0.4-0.5,0.8-1,1.3-1.4c0.5-0.4,1.1-0.7,1.7-0.9s1.3-0.4,2.1-0.6c0.7-0.1,1.5-0.2,2.3-0.2    c1.2,0,2.3,0.1,3.4,0.4c1,0.3,1.9,0.7,2.7,1.3c0.8,0.6,1.4,1.3,1.8,2.2C143.5,66.1,143.7,67.2,143.7,68.4z M142.5,68.4    c0-1-0.2-1.8-0.5-2.5c-0.3-0.7-0.8-1.4-1.4-1.9c-0.6-0.5-1.4-0.9-2.3-1.1c-0.9-0.3-2-0.4-3.2-0.4c-1.2,0-2.3,0.1-3.2,0.4    c-0.9,0.3-1.7,0.6-2.3,1.1c-0.6,0.5-1.1,1.1-1.4,1.9c-0.3,0.7-0.5,1.6-0.5,2.5c0,1,0.2,1.8,0.5,2.5c0.3,0.7,0.8,1.4,1.4,1.9    c0.6,0.5,1.4,0.9,2.3,1.1c0.9,0.3,2,0.4,3.2,0.4c1.2,0,2.3-0.1,3.2-0.4c0.9-0.3,1.7-0.6,2.3-1.1c0.6-0.5,1.1-1.1,1.4-1.9    C142.3,70.2,142.5,69.4,142.5,68.4z"></path>
		<path fill="#342D3F" d="M147.7,70.5c0,0.6,0,1.1,0.1,1.6c0.1,0.4,0.3,0.8,0.6,1.1c0.3,0.3,0.8,0.5,1.4,0.6    c0.6,0.1,1.4,0.2,2.4,0.2h6.1v1.2h-6.4c-1.1,0-2-0.1-2.7-0.3c-0.7-0.2-1.3-0.4-1.7-0.8c-0.4-0.4-0.7-0.8-0.9-1.4    c-0.2-0.6-0.2-1.2-0.2-2v-9.1h1.2V70.5z"></path>
		<path fill="#342D3F" d="M170.8,63.6c-0.3-0.1-0.6-0.3-0.9-0.4c-0.3-0.1-0.7-0.3-1.1-0.4c-0.4-0.1-0.9-0.2-1.5-0.3    c-0.5-0.1-1.1-0.1-1.8-0.1c-0.8,0-1.5,0-2.1,0.1c-0.6,0.1-1.1,0.2-1.6,0.4c-0.4,0.2-0.8,0.4-1,0.7c-0.2,0.3-0.3,0.6-0.3,1.1    c0,0.3,0.1,0.6,0.3,0.9c0.2,0.3,0.5,0.5,0.9,0.7c0.4,0.2,0.8,0.4,1.3,0.5c0.5,0.2,1,0.3,1.6,0.5c0.5,0.1,1.1,0.3,1.7,0.4    c0.6,0.1,1.1,0.3,1.7,0.5c0.5,0.2,1.1,0.4,1.6,0.6c0.5,0.2,0.9,0.4,1.3,0.7c0.4,0.3,0.7,0.6,0.9,0.9c0.2,0.4,0.3,0.8,0.3,1.2    c0,0.5-0.1,0.9-0.3,1.3c-0.2,0.4-0.4,0.7-0.8,1c-0.3,0.3-0.7,0.5-1.1,0.7c-0.4,0.2-0.9,0.3-1.4,0.4c-0.5,0.1-1,0.2-1.5,0.2    c-0.5,0-1,0.1-1.6,0.1c-1.2,0-2.2-0.1-3.2-0.3c-1-0.2-1.9-0.4-2.7-0.7V73c0.9,0.5,1.8,0.9,2.8,1.1c1,0.2,2,0.3,3.1,0.3    c0.8,0,1.5,0,2.1-0.1c0.7-0.1,1.2-0.2,1.7-0.4c0.5-0.2,0.9-0.5,1.1-0.8c0.3-0.3,0.4-0.7,0.4-1.2c0-0.4-0.1-0.7-0.3-1    c-0.2-0.3-0.5-0.5-0.9-0.7c-0.4-0.2-0.8-0.4-1.3-0.6c-0.5-0.2-1-0.3-1.5-0.5s-1.1-0.3-1.7-0.4c-0.6-0.1-1.1-0.3-1.7-0.4    c-0.5-0.2-1.1-0.3-1.5-0.5c-0.5-0.2-0.9-0.4-1.3-0.7c-0.4-0.3-0.7-0.6-0.9-0.9c-0.2-0.3-0.3-0.8-0.3-1.2c0-0.5,0.1-0.9,0.3-1.2    c0.2-0.4,0.4-0.7,0.7-0.9c0.3-0.3,0.6-0.5,1-0.6c0.4-0.2,0.8-0.3,1.3-0.4c0.5-0.1,0.9-0.2,1.4-0.2c0.5,0,1-0.1,1.5-0.1    c0.5,0,1,0,1.5,0.1c0.5,0,0.9,0.1,1.4,0.2c0.4,0.1,0.9,0.2,1.3,0.3c0.4,0.1,0.8,0.2,1.3,0.3V63.6z"></path>
		<path fill="#342D3F" d="M187,75.1v-1.5c-0.5,0.3-1,0.5-1.6,0.7c-0.6,0.2-1.2,0.4-1.9,0.6c-0.7,0.2-1.3,0.3-2.1,0.4    c-0.7,0.1-1.4,0.1-2.1,0.1c-0.9,0-1.7-0.1-2.4-0.2c-0.7-0.2-1.3-0.4-1.8-0.7c-0.5-0.3-0.9-0.7-1.1-1.2c-0.3-0.5-0.4-1-0.4-1.6    c0-0.6,0.2-1.1,0.5-1.6s0.7-0.9,1.3-1.2c0.6-0.3,1.2-0.6,2-0.9c0.8-0.2,1.7-0.4,2.7-0.6c1-0.2,2-0.3,3.2-0.4    c1.1-0.1,2.3-0.2,3.6-0.3v-1c0-0.4-0.1-0.8-0.2-1.1s-0.4-0.6-0.7-0.8c-0.3-0.2-0.6-0.4-1-0.6c-0.4-0.2-0.8-0.3-1.2-0.4    c-0.4-0.1-0.9-0.2-1.4-0.2c-0.5,0-1-0.1-1.5-0.1c-0.7,0-1.3,0-1.8,0.1c-0.5,0.1-1.1,0.2-1.5,0.3c-0.5,0.1-0.9,0.2-1.4,0.4    c-0.4,0.2-0.9,0.3-1.3,0.5v-1.4c0.9-0.2,1.9-0.5,2.9-0.6c1-0.2,2.1-0.3,3.3-0.3c1,0,1.9,0.1,2.8,0.3c0.9,0.2,1.6,0.4,2.2,0.8    c0.6,0.4,1.1,0.8,1.5,1.4c0.4,0.6,0.5,1.3,0.5,2.1v9.2H187z M187,67.8c-2.1,0.1-4,0.3-5.5,0.5c-1.5,0.2-2.8,0.5-3.7,0.8    c-1,0.3-1.7,0.7-2.1,1.1c-0.4,0.4-0.7,0.9-0.7,1.4c0,0.4,0.1,0.8,0.3,1.2c0.2,0.3,0.5,0.6,0.9,0.8c0.4,0.2,0.9,0.4,1.5,0.5    c0.6,0.1,1.3,0.2,2,0.2c0.4,0,0.9,0,1.3-0.1c0.5,0,0.9-0.1,1.4-0.2c0.5-0.1,0.9-0.2,1.4-0.3c0.4-0.1,0.9-0.3,1.3-0.4    c0.4-0.1,0.8-0.3,1.1-0.5c0.3-0.2,0.6-0.3,0.8-0.5V67.8z"></path>
		<path fill="#342D3F" d="M202.7,63.6c-0.3-0.1-0.6-0.3-0.9-0.4c-0.3-0.1-0.7-0.3-1.1-0.4c-0.4-0.1-0.9-0.2-1.5-0.3    c-0.5-0.1-1.1-0.1-1.8-0.1c-0.8,0-1.5,0-2.1,0.1c-0.6,0.1-1.1,0.2-1.6,0.4c-0.4,0.2-0.8,0.4-1,0.7c-0.2,0.3-0.3,0.6-0.3,1.1    c0,0.3,0.1,0.6,0.3,0.9c0.2,0.3,0.5,0.5,0.9,0.7c0.4,0.2,0.8,0.4,1.3,0.5c0.5,0.2,1,0.3,1.6,0.5c0.5,0.1,1.1,0.3,1.7,0.4    c0.6,0.1,1.1,0.3,1.7,0.5c0.5,0.2,1.1,0.4,1.6,0.6c0.5,0.2,0.9,0.4,1.3,0.7c0.4,0.3,0.7,0.6,0.9,0.9c0.2,0.4,0.3,0.8,0.3,1.2    c0,0.5-0.1,0.9-0.3,1.3s-0.4,0.7-0.8,1c-0.3,0.3-0.7,0.5-1.1,0.7c-0.4,0.2-0.9,0.3-1.4,0.4c-0.5,0.1-1,0.2-1.5,0.2    c-0.5,0-1,0.1-1.6,0.1c-1.2,0-2.2-0.1-3.2-0.3c-1-0.2-1.9-0.4-2.7-0.7V73c0.9,0.5,1.8,0.9,2.8,1.1c1,0.2,2,0.3,3.1,0.3    c0.8,0,1.5,0,2.1-0.1c0.7-0.1,1.2-0.2,1.7-0.4c0.5-0.2,0.9-0.5,1.1-0.8c0.3-0.3,0.4-0.7,0.4-1.2c0-0.4-0.1-0.7-0.3-1    c-0.2-0.3-0.5-0.5-0.9-0.7c-0.4-0.2-0.8-0.4-1.3-0.6c-0.5-0.2-1-0.3-1.5-0.5s-1.1-0.3-1.7-0.4c-0.6-0.1-1.1-0.3-1.7-0.4    c-0.5-0.2-1.1-0.3-1.5-0.5c-0.5-0.2-0.9-0.4-1.3-0.7c-0.4-0.3-0.7-0.6-0.9-0.9c-0.2-0.3-0.3-0.8-0.3-1.2c0-0.5,0.1-0.9,0.3-1.2    c0.2-0.4,0.4-0.7,0.7-0.9c0.3-0.3,0.6-0.5,1-0.6c0.4-0.2,0.8-0.3,1.3-0.4c0.5-0.1,0.9-0.2,1.4-0.2c0.5,0,1-0.1,1.5-0.1    c0.5,0,1,0,1.5,0.1c0.5,0,0.9,0.1,1.4,0.2c0.4,0.1,0.9,0.2,1.3,0.3c0.4,0.1,0.8,0.2,1.3,0.3V63.6z"></path>
		<path fill="#342D3F" d="M224.3,63.6c-0.3-0.1-0.6-0.3-0.9-0.4c-0.3-0.1-0.7-0.3-1.1-0.4c-0.4-0.1-0.9-0.2-1.5-0.3    c-0.5-0.1-1.1-0.1-1.8-0.1c-0.8,0-1.5,0-2.1,0.1c-0.6,0.1-1.1,0.2-1.6,0.4c-0.4,0.2-0.8,0.4-1,0.7c-0.2,0.3-0.3,0.6-0.3,1.1    c0,0.3,0.1,0.6,0.3,0.9c0.2,0.3,0.5,0.5,0.9,0.7c0.4,0.2,0.8,0.4,1.3,0.5c0.5,0.2,1,0.3,1.6,0.5c0.5,0.1,1.1,0.3,1.7,0.4    c0.6,0.1,1.1,0.3,1.7,0.5c0.5,0.2,1.1,0.4,1.6,0.6c0.5,0.2,0.9,0.4,1.3,0.7c0.4,0.3,0.7,0.6,0.9,0.9c0.2,0.4,0.3,0.8,0.3,1.2    c0,0.5-0.1,0.9-0.3,1.3s-0.4,0.7-0.8,1c-0.3,0.3-0.7,0.5-1.1,0.7c-0.4,0.2-0.9,0.3-1.4,0.4c-0.5,0.1-1,0.2-1.5,0.2    c-0.5,0-1,0.1-1.6,0.1c-1.2,0-2.2-0.1-3.2-0.3c-1-0.2-1.9-0.4-2.7-0.7V73c0.9,0.5,1.8,0.9,2.8,1.1c1,0.2,2,0.3,3.1,0.3    c0.8,0,1.5,0,2.1-0.1c0.7-0.1,1.2-0.2,1.7-0.4c0.5-0.2,0.9-0.5,1.1-0.8c0.3-0.3,0.4-0.7,0.4-1.2c0-0.4-0.1-0.7-0.3-1    c-0.2-0.3-0.5-0.5-0.9-0.7c-0.4-0.2-0.8-0.4-1.3-0.6c-0.5-0.2-1-0.3-1.5-0.5c-0.5-0.1-1.1-0.3-1.7-0.4c-0.6-0.1-1.1-0.3-1.7-0.4    c-0.5-0.2-1.1-0.3-1.5-0.5c-0.5-0.2-0.9-0.4-1.3-0.7c-0.4-0.3-0.7-0.6-0.9-0.9c-0.2-0.3-0.3-0.8-0.3-1.2c0-0.5,0.1-0.9,0.3-1.2    c0.2-0.4,0.4-0.7,0.7-0.9c0.3-0.3,0.6-0.5,1-0.6c0.4-0.2,0.8-0.3,1.3-0.4c0.5-0.1,0.9-0.2,1.4-0.2c0.5,0,1-0.1,1.5-0.1    c0.5,0,1,0,1.5,0.1c0.5,0,0.9,0.1,1.4,0.2c0.4,0.1,0.9,0.2,1.3,0.3c0.4,0.1,0.8,0.2,1.3,0.3V63.6z"></path>
		<path fill="#342D3F" d="M229.6,61.6v8.9c0,0.8,0.1,1.4,0.3,1.9c0.2,0.5,0.5,0.9,0.8,1.1c0.4,0.3,0.8,0.5,1.3,0.6    c0.5,0.1,1.1,0.2,1.8,0.2c0.8,0,1.5-0.1,2.2-0.3c0.7-0.2,1.4-0.4,2.1-0.7c0.6-0.3,1.2-0.6,1.8-0.9c0.5-0.3,1-0.7,1.4-1v-9.7h1.3    v13.5h-1.3v-2.4c-0.5,0.3-1,0.6-1.5,0.9c-0.5,0.3-1.1,0.6-1.8,0.9c-0.6,0.3-1.3,0.5-2,0.7c-0.7,0.2-1.5,0.3-2.3,0.3    c-0.9,0-1.7-0.1-2.4-0.3c-0.7-0.2-1.2-0.6-1.7-1c-0.4-0.4-0.8-0.9-1-1.5c-0.2-0.6-0.3-1.2-0.3-1.9v-9.2H229.6z"></path>
		<path fill="#342D3F" d="M257.1,63.6c-0.3-0.1-0.6-0.3-0.9-0.4c-0.3-0.1-0.7-0.3-1.1-0.4c-0.4-0.1-0.9-0.2-1.5-0.3    c-0.5-0.1-1.1-0.1-1.8-0.1c-0.8,0-1.5,0-2.1,0.1c-0.6,0.1-1.1,0.2-1.6,0.4c-0.4,0.2-0.8,0.4-1,0.7c-0.2,0.3-0.3,0.6-0.3,1.1    c0,0.3,0.1,0.6,0.3,0.9c0.2,0.3,0.5,0.5,0.9,0.7c0.4,0.2,0.8,0.4,1.3,0.5c0.5,0.2,1,0.3,1.6,0.5c0.5,0.1,1.1,0.3,1.7,0.4    c0.6,0.1,1.1,0.3,1.7,0.5c0.5,0.2,1.1,0.4,1.6,0.6c0.5,0.2,0.9,0.4,1.3,0.7c0.4,0.3,0.7,0.6,0.9,0.9c0.2,0.4,0.3,0.8,0.3,1.2    c0,0.5-0.1,0.9-0.3,1.3c-0.2,0.4-0.4,0.7-0.8,1c-0.3,0.3-0.7,0.5-1.1,0.7c-0.4,0.2-0.9,0.3-1.4,0.4c-0.5,0.1-1,0.2-1.5,0.2    c-0.5,0-1,0.1-1.6,0.1c-1.2,0-2.2-0.1-3.2-0.3c-1-0.2-1.9-0.4-2.7-0.7V73c0.9,0.5,1.8,0.9,2.8,1.1c1,0.2,2,0.3,3.1,0.3    c0.8,0,1.5,0,2.1-0.1c0.7-0.1,1.2-0.2,1.7-0.4c0.5-0.2,0.9-0.5,1.1-0.8c0.3-0.3,0.4-0.7,0.4-1.2c0-0.4-0.1-0.7-0.3-1    c-0.2-0.3-0.5-0.5-0.9-0.7c-0.4-0.2-0.8-0.4-1.3-0.6c-0.5-0.2-1-0.3-1.5-0.5c-0.5-0.1-1.1-0.3-1.7-0.4c-0.6-0.1-1.1-0.3-1.7-0.4    c-0.5-0.2-1.1-0.3-1.5-0.5c-0.5-0.2-0.9-0.4-1.3-0.7c-0.4-0.3-0.7-0.6-0.9-0.9c-0.2-0.3-0.3-0.8-0.3-1.2c0-0.5,0.1-0.9,0.3-1.2    c0.2-0.4,0.4-0.7,0.7-0.9c0.3-0.3,0.6-0.5,1-0.6c0.4-0.2,0.8-0.3,1.3-0.4c0.5-0.1,0.9-0.2,1.4-0.2c0.5,0,1-0.1,1.5-0.1    c0.5,0,1,0,1.5,0.1c0.5,0,0.9,0.1,1.4,0.2c0.4,0.1,0.9,0.2,1.3,0.3c0.4,0.1,0.8,0.2,1.3,0.3V63.6z"></path>
		<path fill="#342D3F" d="M266.7,62.8v12.4h-1.2V62.8h-6.1v-1.1h13.5v1.1H266.7z"></path>
		<path fill="#342D3F" d="M287.8,74.4c-0.6,0.2-1.1,0.3-1.5,0.4c-0.5,0.1-0.9,0.2-1.4,0.3c-0.5,0.1-0.9,0.1-1.4,0.2    c-0.5,0-1,0.1-1.6,0.1c-1.3,0-2.5-0.2-3.6-0.5s-2-0.8-2.7-1.4c-0.8-0.6-1.3-1.3-1.7-2.2c-0.4-0.9-0.6-1.8-0.6-2.9    c0-1,0.2-2,0.6-2.8c0.4-0.9,0.9-1.6,1.6-2.2c0.7-0.6,1.5-1.1,2.5-1.4s2.1-0.5,3.2-0.5c1.2,0,2.3,0.2,3.3,0.5    c1,0.3,1.8,0.8,2.4,1.4c0.7,0.6,1.2,1.3,1.5,2.2c0.3,0.9,0.5,1.8,0.5,2.9v0.3h-14.4c0.1,0.8,0.3,1.6,0.6,2.3    c0.3,0.7,0.8,1.2,1.5,1.7c0.6,0.5,1.4,0.8,2.4,1.1c0.9,0.3,2,0.4,3.3,0.4c0.5,0,1.1,0,1.6-0.1c0.5-0.1,1.1-0.2,1.6-0.3    c0.5-0.1,1-0.3,1.4-0.4c0.4-0.2,0.8-0.3,1-0.5V74.4z M287.7,67.8c0-0.7-0.2-1.3-0.5-2c-0.3-0.6-0.7-1.2-1.2-1.7    c-0.5-0.5-1.2-0.9-2-1.1c-0.8-0.3-1.8-0.4-2.9-0.4c-1.1,0-2,0.1-2.8,0.4s-1.5,0.7-2,1.1c-0.6,0.5-1,1-1.3,1.7    c-0.3,0.6-0.5,1.3-0.6,2H287.7z"></path>
		<path fill="#342D3F" d="M304.7,75.1v-8.9c0-0.7-0.1-1.4-0.3-1.8c-0.2-0.5-0.5-0.9-0.9-1.1c-0.4-0.3-0.8-0.5-1.4-0.6    c-0.5-0.1-1.1-0.2-1.8-0.2c-0.8,0-1.5,0.1-2.3,0.3c-0.7,0.2-1.4,0.4-2.1,0.7c-0.7,0.3-1.3,0.6-1.8,0.9c-0.6,0.3-1,0.7-1.4,1v9.7    h-1.2V61.6h1.2V64c0.5-0.3,1-0.6,1.5-0.9c0.6-0.3,1.2-0.6,1.8-0.9c0.6-0.3,1.3-0.5,2.1-0.7c0.7-0.2,1.5-0.3,2.3-0.3    c0.9,0,1.7,0.1,2.4,0.3c0.7,0.2,1.2,0.5,1.7,0.9c0.4,0.4,0.8,0.9,1,1.5c0.2,0.6,0.3,1.2,0.3,1.9v9.2H304.7z"></path>
		<path fill="#342D3F" d="M315,62.8v12.4h-1.2V62.8h-6.1v-1.1h13.5v1.1H315z"></path>
		<path fill="#342D3F" d="M335.1,75.1v-1.5c-0.5,0.3-1,0.5-1.6,0.7c-0.6,0.2-1.2,0.4-1.9,0.6c-0.7,0.2-1.3,0.3-2.1,0.4    c-0.7,0.1-1.4,0.1-2.1,0.1c-0.9,0-1.7-0.1-2.4-0.2c-0.7-0.2-1.3-0.4-1.8-0.7c-0.5-0.3-0.9-0.7-1.1-1.2c-0.3-0.5-0.4-1-0.4-1.6    c0-0.6,0.2-1.1,0.5-1.6c0.3-0.5,0.7-0.9,1.3-1.2c0.6-0.3,1.2-0.6,2-0.9c0.8-0.2,1.7-0.4,2.7-0.6c1-0.2,2-0.3,3.2-0.4    c1.1-0.1,2.3-0.2,3.6-0.3v-1c0-0.4-0.1-0.8-0.2-1.1c-0.2-0.3-0.4-0.6-0.7-0.8c-0.3-0.2-0.6-0.4-1-0.6c-0.4-0.2-0.8-0.3-1.2-0.4    s-0.9-0.2-1.4-0.2c-0.5,0-1-0.1-1.5-0.1c-0.7,0-1.3,0-1.8,0.1c-0.5,0.1-1.1,0.2-1.5,0.3c-0.5,0.1-0.9,0.2-1.4,0.4    c-0.4,0.2-0.9,0.3-1.3,0.5v-1.4c0.9-0.2,1.9-0.5,2.9-0.6c1-0.2,2.1-0.3,3.3-0.3c1,0,1.9,0.1,2.8,0.3c0.9,0.2,1.6,0.4,2.2,0.8    c0.6,0.4,1.1,0.8,1.5,1.4c0.4,0.6,0.5,1.3,0.5,2.1v9.2H335.1z M335.1,67.8c-2.1,0.1-4,0.3-5.5,0.5c-1.5,0.2-2.8,0.5-3.7,0.8    c-1,0.3-1.7,0.7-2.1,1.1c-0.4,0.4-0.7,0.9-0.7,1.4c0,0.4,0.1,0.8,0.3,1.2c0.2,0.3,0.5,0.6,1,0.8c0.4,0.2,0.9,0.4,1.5,0.5    c0.6,0.1,1.3,0.2,2,0.2c0.4,0,0.9,0,1.3-0.1c0.5,0,0.9-0.1,1.4-0.2c0.5-0.1,0.9-0.2,1.4-0.3c0.4-0.1,0.9-0.3,1.3-0.4    c0.4-0.1,0.8-0.3,1.1-0.5s0.6-0.3,0.8-0.5V67.8z"></path>
		<path fill="#342D3F" d="M353.3,71.4c0,0.5-0.1,1-0.2,1.4c-0.1,0.4-0.3,0.7-0.6,1c-0.2,0.3-0.5,0.5-0.9,0.7    c-0.3,0.2-0.7,0.3-1.1,0.4c-0.4,0.1-0.9,0.2-1.3,0.2c-0.5,0-1,0.1-1.5,0.1h-7.8V61.6h7.6c0.4,0,0.8,0,1.2,0c0.4,0,0.8,0.1,1.1,0.2    c0.4,0.1,0.7,0.2,1,0.4c0.3,0.2,0.6,0.4,0.8,0.6c0.2,0.3,0.4,0.6,0.5,0.9s0.2,0.8,0.2,1.3c0,0.4-0.1,0.8-0.2,1.1s-0.3,0.6-0.5,0.8    c-0.2,0.2-0.5,0.4-0.8,0.6c-0.3,0.1-0.7,0.3-1.2,0.3c0.7,0,1.2,0.2,1.7,0.3c0.5,0.2,0.8,0.4,1.1,0.7c0.3,0.3,0.5,0.6,0.6,1.1    C353.2,70.4,353.3,70.9,353.3,71.4z M351.1,65.1c0-0.2,0-0.4,0-0.6c0-0.2-0.1-0.4-0.2-0.5c-0.1-0.2-0.2-0.3-0.4-0.5    c-0.2-0.2-0.4-0.3-0.7-0.4c-0.3-0.1-0.7-0.2-1.1-0.3c-0.4-0.1-1-0.1-1.6-0.1h-6v4.7h6c0.9,0,1.6-0.1,2.1-0.2    c0.5-0.1,0.9-0.3,1.2-0.5c0.3-0.2,0.5-0.5,0.6-0.8C351.1,65.7,351.1,65.4,351.1,65.1z M352,71.4c0-0.5-0.1-0.9-0.3-1.3    c-0.2-0.4-0.4-0.7-0.8-0.9c-0.4-0.2-0.8-0.4-1.4-0.5c-0.6-0.1-1.3-0.2-2.1-0.2h-6.3V74h6.5c0.8,0,1.5,0,2.1-0.1    c0.6-0.1,1-0.2,1.4-0.5c0.3-0.2,0.6-0.5,0.7-0.8C351.9,72.3,352,71.9,352,71.4z"></path>
		<path fill="#342D3F" d="M357.1,70.5c0,0.6,0,1.1,0.1,1.6c0.1,0.4,0.3,0.8,0.6,1.1c0.3,0.3,0.8,0.5,1.4,0.6    c0.6,0.1,1.4,0.2,2.4,0.2h6.1v1.2h-6.4c-1.1,0-2-0.1-2.7-0.3c-0.7-0.2-1.3-0.4-1.7-0.8c-0.4-0.4-0.7-0.8-0.9-1.4    c-0.2-0.6-0.2-1.2-0.2-2v-9.1h1.2V70.5z"></path>
		<path fill="#342D3F" d="M382.9,74.4c-0.6,0.2-1.1,0.3-1.5,0.4c-0.5,0.1-0.9,0.2-1.4,0.3c-0.5,0.1-0.9,0.1-1.4,0.2    c-0.5,0-1,0.1-1.6,0.1c-1.3,0-2.5-0.2-3.6-0.5c-1.1-0.3-2-0.8-2.7-1.4c-0.8-0.6-1.3-1.3-1.7-2.2c-0.4-0.9-0.6-1.8-0.6-2.9    c0-1,0.2-2,0.6-2.8c0.4-0.9,0.9-1.6,1.6-2.2c0.7-0.6,1.5-1.1,2.5-1.4c1-0.3,2.1-0.5,3.2-0.5c1.2,0,2.3,0.2,3.3,0.5    c1,0.3,1.8,0.8,2.4,1.4c0.7,0.6,1.2,1.3,1.5,2.2c0.3,0.9,0.5,1.8,0.5,2.9v0.3h-14.4c0.1,0.8,0.3,1.6,0.6,2.3    c0.3,0.7,0.8,1.2,1.5,1.7c0.6,0.5,1.4,0.8,2.4,1.1c0.9,0.3,2,0.4,3.3,0.4c0.5,0,1.1,0,1.6-0.1c0.5-0.1,1.1-0.2,1.6-0.3    c0.5-0.1,1-0.3,1.4-0.4c0.4-0.2,0.8-0.3,1-0.5V74.4z M382.8,67.8c0-0.7-0.2-1.3-0.5-2c-0.3-0.6-0.7-1.2-1.2-1.7    c-0.5-0.5-1.2-0.9-2-1.1c-0.8-0.3-1.8-0.4-2.9-0.4c-1.1,0-2,0.1-2.8,0.4s-1.5,0.7-2,1.1c-0.6,0.5-1,1-1.3,1.7    c-0.3,0.6-0.5,1.3-0.6,2H382.8z"></path>
		<path fill="#342D3F" d="M397.6,63.6c-0.3-0.1-0.6-0.3-0.9-0.4c-0.3-0.1-0.7-0.3-1.1-0.4c-0.4-0.1-0.9-0.2-1.5-0.3    c-0.5-0.1-1.1-0.1-1.8-0.1c-0.8,0-1.5,0-2.1,0.1c-0.6,0.1-1.1,0.2-1.6,0.4c-0.4,0.2-0.8,0.4-1,0.7c-0.2,0.3-0.3,0.6-0.3,1.1    c0,0.3,0.1,0.6,0.3,0.9c0.2,0.3,0.5,0.5,0.9,0.7c0.4,0.2,0.8,0.4,1.3,0.5c0.5,0.2,1,0.3,1.6,0.5c0.5,0.1,1.1,0.3,1.7,0.4    c0.6,0.1,1.1,0.3,1.7,0.5c0.5,0.2,1.1,0.4,1.6,0.6c0.5,0.2,0.9,0.4,1.3,0.7c0.4,0.3,0.7,0.6,0.9,0.9c0.2,0.4,0.3,0.8,0.3,1.2    c0,0.5-0.1,0.9-0.3,1.3c-0.2,0.4-0.4,0.7-0.8,1c-0.3,0.3-0.7,0.5-1.1,0.7c-0.4,0.2-0.9,0.3-1.4,0.4c-0.5,0.1-1,0.2-1.5,0.2    c-0.5,0-1,0.1-1.6,0.1c-1.2,0-2.2-0.1-3.2-0.3c-1-0.2-1.9-0.4-2.7-0.7V73c0.9,0.5,1.8,0.9,2.8,1.1c1,0.2,2,0.3,3.1,0.3    c0.8,0,1.5,0,2.1-0.1c0.7-0.1,1.2-0.2,1.7-0.4c0.5-0.2,0.9-0.5,1.1-0.8c0.3-0.3,0.4-0.7,0.4-1.2c0-0.4-0.1-0.7-0.3-1    c-0.2-0.3-0.5-0.5-0.9-0.7c-0.4-0.2-0.8-0.4-1.3-0.6c-0.5-0.2-1-0.3-1.5-0.5c-0.5-0.1-1.1-0.3-1.7-0.4c-0.6-0.1-1.1-0.3-1.7-0.4    c-0.5-0.2-1.1-0.3-1.5-0.5c-0.5-0.2-0.9-0.4-1.3-0.7c-0.4-0.3-0.7-0.6-0.9-0.9c-0.2-0.3-0.3-0.8-0.3-1.2c0-0.5,0.1-0.9,0.3-1.2    c0.2-0.4,0.4-0.7,0.7-0.9c0.3-0.3,0.6-0.5,1-0.6c0.4-0.2,0.8-0.3,1.3-0.4c0.5-0.1,0.9-0.2,1.4-0.2c0.5,0,1-0.1,1.5-0.1    c0.5,0,1,0,1.5,0.1c0.5,0,0.9,0.1,1.4,0.2c0.4,0.1,0.9,0.2,1.3,0.3c0.4,0.1,0.8,0.2,1.3,0.3V63.6z"></path>
	</g>
	<path fill="#2C52A3" d="M101.4,37.5c0-3.1-1-5.9-2.6-8.3c-0.1-0.2-0.2-0.3-0.3-0.5C97.8,27.9,81,6.4,79.7,4.8C77,1.7,73.1,0,68.5,0   c-2.9,0-5.7,0.8-8.2,2.2c-1.3,0.7-2.5,1.6-3.5,2.7c0,0,0,0,0-0.1C54,1.7,50.2,0,45.6,0c-4.8,0-9.3,2.1-12.4,5.6c0,0,0-0.1-0.1-0.1   c-2.7-3.1-6.5-4.8-11.2-4.8c-9.1,0-16.5,7.4-16.5,16.5c0,0.2,0,0.4,0.1,0.6c-0.1,0.2-0.1,0.5-0.1,0.7v48c0,2.8-0.4,4.8-1.1,6   c-0.6,1-1.5,1.7-2.9,2.6c-1.2,0.8-1.6,2.3-1,3.6c1.8,3.7,11.5,19.3,11.9,19.9c0.5,0.9,1.5,1.3,2.4,1.3c0.4,0,0.9-0.1,1.3-0.3   c0.2-0.1,3.8-1.9,7.4-5.5c4.9-4.9,7.5-10.7,7.5-16.7c0-2.8,0-6.3,0-10L38.9,79c0.5,0.8,1.4,1.2,2.3,1.2h47.6l0.2,0   c1.9,0,6.3,0,9.4-3.1c2.1-2.1,3.2-5.1,3.2-9C101.6,58.7,101.4,38,101.4,37.5 M68.5,5.7c3,0,5.2,0.9,6.8,2.8   c0.7,0.8,6.2,7.9,11.4,14.4c-4.4,0-8.4,2-11.1,5.2c-3.7-4.6-10.8-13.4-15.2-18.8C62.4,7,65.3,5.7,68.5,5.7 M45.6,5.7   c3,0,5.2,0.9,6.8,2.8c0.2,0.3,1,1.2,2.2,2.6c0,0,0,0.1,0.1,0.1c2.2,2.7,5.8,7.2,9.5,11.7c-0.3,0-0.6,0-0.9,0   c-4.7,0-8.8,2.2-11.5,5.6C48,23.9,41.1,15.4,36.8,10.1C38.9,7.3,42.1,5.7,45.6,5.7 M25.1,37.5c0,0.2,0,10.1,0,20.8   c0,0.2,0,0.3,0,0.5c0,6.8,0,13.8,0,18.7c0,4.5-1.9,8.8-5.7,12.6c-1.4,1.4-2.7,2.4-3.8,3.2c-2.7-4.4-6.8-11.2-9-14.9   c0.9-0.8,1.8-1.7,2.5-2.9c1.3-2.2,2-5.1,2-9v-48c0-0.2,0-0.4-0.1-0.6c0.1-0.2,0.1-0.5,0.1-0.7c0-6,4.9-10.9,10.9-10.9   c3,0,5.2,0.9,6.8,2.8c0.6,0.7,5.7,7,11.1,13.7c-0.1,0-0.1,0-0.2,0C31.6,22.9,25.1,29.5,25.1,37.5 M94.4,73.1   c-1.5,1.5-4,1.5-5.4,1.5l-0.2,0H42.6l-9.3-13.1h35.1c0,0,0.1,0,0.1,0c0.2,0,2.3-0.1,4.5-1.1c3.3-1.5,5.1-4.3,5.1-7.8v-7.7   c0-1.6-1.3-2.8-2.8-2.8c-1.6,0-2.8,1.3-2.8,2.8v7.7c0,1.3-0.5,2-1.6,2.6c-1.1,0.5-2.2,0.6-2.4,0.6H30.7c0-9.6,0-18,0-18.2   c0-4.9,4-8.9,8.9-8.9c4.9,0,8.9,4,8.9,8.9c0,1.6,1.3,2.8,2.8,2.8s2.8-1.3,2.8-2.8c0-4.9,4-8.9,8.9-8.9c4.9,0,8.9,4,8.9,8.9   c0,1.6,1.3,2.8,2.8,2.8c1.6,0,2.8-1.3,2.8-2.8c0-4.9,4-8.9,8.9-8.9s8.9,4,8.9,8.9c0,0,0,0,0,0c0,0.2,0.1,21.1,0.1,30.5   C95.9,70.4,95.4,72.1,94.4,73.1"></path>
</g>
</svg>
