<svg xmlns="http://www.w3.org/2000/svg" viewBox="0 0 400 100" width="100%" height="100%">
  <!-- Stylized Flame & Gear Icon -->
  <g transform="translate(10, 10)">
    <circle cx="40" cy="40" r="35" fill="none" stroke="#ffffff" stroke-width="6"/>
    <path d="M40,2 L40,8 M40,72 L40,78 M2,40 L8,40 M72,40 L78,40 M13,13 L17,17 M63,63 L67,67 M13,67 L17,63 M63,13 L67,17" stroke="#ffffff" stroke-width="6" stroke-linecap="round"/>
    <path d="M40,20 C30,35 30,55 40,65 C50,55 50,35 40,20 Z" fill="#ff7f50"/>
    <path d="M40,35 C35,45 35,55 40,60 C45,55 45,45 40,35 Z" fill="#ffd700"/>
  </g>
  <!-- Text -->
  <text x="110" y="62" font-family="'Nunito Sans', sans-serif" font-size="44" font-weight="900" fill="#ffffff">EITEC</text>
  <text x="112" y="82" font-family="'Nunito Sans', sans-serif" font-size="14" font-weight="700" fill="#e9ecef" letter-spacing="2">COOPERATIVA METALÚRGICA</text>
</svg>
